<svg width="56" height="56" viewBox="0 0 56 56" fill="none" xmlns="http://www.w3.org/2000/svg">
<rect width="56" height="56" rx="28" fill="white"/>
<path d="M31.7512 26.5V22C31.7512 21.0054 31.3561 20.0516 30.6529 19.3483C29.9496 18.6451 28.9958 18.25 28.0012 18.25C27.0066 18.25 26.0528 18.6451 25.3496 19.3483C24.6463 20.0516 24.2512 21.0054 24.2512 22V26.5M35.6072 24.507L36.8702 36.507C36.9402 37.172 36.4202 37.75 35.7512 37.75H20.2512C20.0934 37.7502 19.9374 37.7171 19.7932 37.6531C19.649 37.589 19.5199 37.4953 19.4142 37.3781C19.3086 37.2608 19.2288 37.1227 19.1801 36.9726C19.1313 36.8226 19.1147 36.6639 19.1312 36.507L20.3952 24.507C20.4244 24.2306 20.5548 23.9747 20.7615 23.7888C20.9681 23.6028 21.2362 23.4999 21.5142 23.5H34.4882C35.0642 23.5 35.5472 23.935 35.6072 24.507ZM24.6262 26.5C24.6262 26.5995 24.5867 26.6948 24.5164 26.7652C24.446 26.8355 24.3507 26.875 24.2512 26.875C24.1517 26.875 24.0564 26.8355 23.986 26.7652C23.9157 26.6948 23.8762 26.5995 23.8762 26.5C23.8762 26.4005 23.9157 26.3052 23.986 26.2348C24.0564 26.1645 24.1517 26.125 24.2512 26.125C24.3507 26.125 24.446 26.1645 24.5164 26.2348C24.5867 26.3052 24.6262 26.4005 24.6262 26.5V26.5ZM32.1262 26.5C32.1262 26.5995 32.0867 26.6948 32.0164 26.7652C31.946 26.8355 31.8507 26.875 31.7512 26.875C31.6517 26.875 31.5564 26.8355 31.486 26.7652C31.4157 26.6948 31.3762 26.5995 31.3762 26.5C31.3762 26.4005 31.4157 26.3052 31.486 26.2348C31.5564 26.1645 31.6517 26.125 31.7512 26.125C31.8507 26.125 31.946 26.1645 32.0164 26.2348C32.0867 26.3052 32.1262 26.4005 32.1262 26.5V26.5Z" stroke="#2B2B2B" stroke-width="2" stroke-linecap="round" stroke-linejoin="round"/>
</svg>
