<svg width="50" height="50" viewBox="0 0 50 50" fill="none" xmlns="http://www.w3.org/2000/svg">
<g clip-path="url(#clip0_2_1075)">
<path d="M24.9976 0C38.8046 0 49.9952 11.1968 49.9952 25C49.9952 38.8032 38.8046 50 24.9976 50C11.1906 50 0 38.8032 0 25C0 11.1968 11.1906 0 24.9976 0Z" fill="#F95555"/>
<path d="M36.9973 10.4253C37.878 10.4253 38.3184 10.8774 38.3184 11.7817V16.8349C38.3184 17.2604 38.2148 17.6061 37.9816 17.8455C37.7744 18.0849 37.4376 18.1913 36.9973 18.1913H25.4958C25.0813 18.1913 24.7445 18.2976 24.5114 18.537C24.2783 18.7498 24.1746 19.0955 24.1746 19.5476V40.6647C24.1746 41.0902 24.071 41.4359 23.8379 41.6753C23.6307 41.9147 23.2939 42.021 22.8535 42.021H17.6727C17.2582 42.021 16.9215 41.9147 16.6883 41.6753C16.4552 41.4359 16.3516 41.1168 16.3516 40.6647V11.7817C16.3516 11.3295 16.4811 10.9838 16.6883 10.771C16.9215 10.5583 17.2323 10.4253 17.6727 10.4253H36.9973Z" fill="white"/>
<path d="M27.1777 27.6066C23.8879 27.3406 7.90496 30.0002 6.68747 27.1013C4.69284 22.2609 21.5047 25.0002 23.7584 25.0534C24.8982 25.08 26.297 25.3194 27.1 25.08C27.6699 24.9204 28.0585 23.963 28.6802 23.5906C30.1049 22.7396 32.3845 23.2183 34.3532 23.3779C35.7002 23.4843 36.9954 23.6438 38.3943 23.7236C36.3996 24.0162 34.2496 24.3087 32.1254 24.5747C31.8664 24.6013 31.4778 24.5215 31.3224 24.7875C33.4725 25.1332 35.8816 25.213 38.2388 25.3992C35.9593 25.7449 33.3688 25.8247 31.1152 26.2768C31.2706 26.5428 31.6592 26.463 31.9182 26.4896C33.9387 26.6492 36.1406 26.8087 38.2388 26.9417C36.037 27.3141 33.4984 27.3672 31.3483 27.8194C31.4001 28.1651 31.8923 28.0587 32.0995 28.0853C34.0942 28.3247 36.3478 28.6172 38.4202 28.8034C36.1406 28.9896 33.317 29.5215 30.9338 29.6811C29.1465 29.8141 28.0844 28.7236 27.1777 27.6066Z" fill="white"/>
<path d="M21.5057 27.8726C24.0443 27.6598 26.1943 27.4736 27.2046 27.5534H27.2305C27.6709 28.1119 28.1631 28.6704 28.7589 29.0694C29.3547 29.4683 30.08 29.7077 30.9866 29.6545C32.2818 29.5747 33.7325 29.3885 35.1313 29.1758C36.1416 29.0428 37.1259 28.9098 38.0585 28.8034C37.1518 28.7236 36.2193 28.6173 35.2867 28.5109C34.1988 28.3779 33.1367 28.2449 32.1523 28.1385H31.9969C31.7638 28.1385 31.427 28.1385 31.3752 27.846V27.8194H31.4011C32.6186 27.58 33.9397 27.447 35.2608 27.3141C36.1675 27.2343 37.0741 27.1279 37.929 27.0215C36.3488 26.9151 34.6909 26.8087 33.1367 26.6758L31.971 26.596H31.7897C31.5565 26.596 31.2716 26.596 31.1421 26.3566L31.1162 26.3034H31.168C32.4373 26.0375 33.8102 25.9045 35.1831 25.7981C36.1157 25.7183 37.0482 25.6119 37.929 25.5056L36.5301 25.4258C34.7687 25.3194 32.9813 25.213 31.3752 24.947H31.3234L31.3493 24.8938C31.4788 24.6545 31.7379 24.6545 31.971 24.6545H32.1782L33.8879 24.4151C35.3126 24.229 36.7374 24.0428 38.0844 23.83C37.2814 23.7768 36.4783 23.697 35.6753 23.6173C35.2608 23.5907 34.8464 23.5375 34.406 23.5109C34.0692 23.4843 33.7066 23.4311 33.3439 23.4045C31.6601 23.2183 29.8987 23.0321 28.7589 23.7236C28.4739 23.8832 28.2408 24.1758 28.0076 24.4683C27.7486 24.8141 27.4896 25.1332 27.1528 25.213C26.5829 25.3726 25.754 25.3194 24.8991 25.2396C24.5106 25.213 24.1479 25.1864 23.7853 25.1864C23.3967 25.1864 22.5937 25.08 21.5057 24.9736C17.6718 24.5747 10.5223 23.8034 7.72461 25.0268C6.74025 25.4524 6.32578 26.1173 6.74025 27.1545C7.56919 29.0694 15.6254 28.3779 21.5057 27.8726ZM27.1787 27.6332C26.1943 27.5534 24.0443 27.7396 21.5057 27.9524C15.5995 28.4577 7.51738 29.1492 6.66254 27.1013C6.22216 26.0375 6.66254 25.3194 7.6728 24.8673C10.4964 23.6173 17.6459 24.3885 21.4798 24.7875C22.5418 24.8938 23.3449 25.0002 23.7334 25.0002C24.0961 25.0002 24.4588 25.0268 24.8473 25.0534C25.6763 25.1066 26.5311 25.1864 27.0751 25.0268C27.36 24.947 27.6191 24.6279 27.8781 24.3087C28.1113 24.0162 28.3444 23.7236 28.6553 23.5375C29.8209 22.8194 31.5824 23.0321 33.2921 23.2183C33.6548 23.2715 34.0174 23.2981 34.3542 23.3247C34.7687 23.3513 35.1831 23.4045 35.6235 23.4311C36.5301 23.5109 37.4368 23.6173 38.3953 23.6704L38.7579 23.697L38.3953 23.7502C36.9446 23.963 35.3904 24.1758 33.8361 24.3885L32.1264 24.6279H31.9192C31.7379 24.6279 31.5306 24.6279 31.4011 24.7875C32.9813 25.0268 34.7428 25.1598 36.4783 25.2662C37.0741 25.2928 37.6699 25.346 38.2398 25.3726L38.5766 25.3992L38.2398 25.4524C37.2555 25.6119 36.1934 25.7183 35.1313 25.7981C33.7843 25.9311 32.4373 26.0641 31.168 26.3034C31.2975 26.4364 31.5306 26.4364 31.7379 26.4364H31.9192L33.0849 26.5162C34.7687 26.6492 36.5301 26.7821 38.2398 26.8619L38.6025 26.8885L38.2398 26.9417C37.2814 27.1013 36.2452 27.2077 35.209 27.3141C33.9138 27.447 32.5927 27.58 31.4011 27.8194C31.4529 28.0321 31.7379 28.0056 31.9192 28.0056H32.1005C33.1108 28.1385 34.1729 28.2715 35.2349 28.3779C36.297 28.5109 37.385 28.6173 38.4212 28.7236V28.8034C37.385 28.8832 36.2452 29.0428 35.0795 29.2024C33.6807 29.3885 32.23 29.6013 30.9348 29.6811C30.0023 29.7343 29.277 29.4949 28.6812 29.096C28.1113 28.7502 27.6191 28.1917 27.1787 27.6332Z" fill="white"/>
</g>
<defs>
<clipPath id="clip0_2_1075">
<rect width="50" height="50" fill="white"/>
</clipPath>
</defs>
</svg>
